<svg width="595" height="842" viewBox="0 0 595 842" fill="none" xmlns="http://www.w3.org/2000/svg">
<g clip-path="url(#clip0_9:60)">
<path d="M594 802C594 823.539 576.539 841 555 841H40C18.4609 841 1 823.539 1 802V40C1 18.4609 18.4609 1 40 1H394.586L594 200.414V802Z" fill="#8B5CF6" stroke="black" stroke-width="2"/>
<g filter="url(#filter0_d_9:60)">
<path d="M595 200L395 0V160C395 182.091 412.909 200 435 200H595Z" fill="#6D28D9"/>
<path d="M396 160V2.41421L592.586 199H435C413.461 199 396 181.539 396 160Z" stroke="black" stroke-width="2"/>
</g>
<path d="M287.562 620H249.867L106.703 400.859V620H69.0078V335.625H106.703L250.258 555.742V335.625H287.562V620ZM437.953 493.242C405.792 483.997 382.354 472.669 367.641 459.258C353.057 445.716 345.766 429.049 345.766 409.258C345.766 386.862 354.685 368.372 372.523 353.789C390.492 339.076 413.799 331.719 442.445 331.719C461.977 331.719 479.359 335.495 494.594 343.047C509.958 350.599 521.807 361.016 530.141 374.297C538.604 387.578 542.836 402.096 542.836 417.852H505.141C505.141 400.664 499.672 387.188 488.734 377.422C477.797 367.526 462.367 362.578 442.445 362.578C423.956 362.578 409.503 366.68 399.086 374.883C388.799 382.956 383.656 394.219 383.656 408.672C383.656 420.26 388.539 430.091 398.305 438.164C408.201 446.107 424.932 453.398 448.5 460.039C472.198 466.68 490.688 474.036 503.969 482.109C517.38 490.052 527.276 499.362 533.656 510.039C540.167 520.716 543.422 533.281 543.422 547.734C543.422 570.781 534.438 589.271 516.469 603.203C498.5 617.005 474.477 623.906 444.398 623.906C424.867 623.906 406.638 620.195 389.711 612.773C372.784 605.221 359.698 594.935 350.453 581.914C341.339 568.893 336.781 554.115 336.781 537.578H374.477C374.477 554.766 380.792 568.372 393.422 578.398C406.182 588.294 423.174 593.242 444.398 593.242C464.19 593.242 479.359 589.206 489.906 581.133C500.453 573.06 505.727 562.057 505.727 548.125C505.727 534.193 500.844 523.451 491.078 515.898C481.312 508.216 463.604 500.664 437.953 493.242Z" fill="white"/>
</g>
<defs>
<filter id="filter0_d_9:60" x="391" y="0" width="208" height="208" filterUnits="userSpaceOnUse" color-interpolation-filters="sRGB">
<feFlood flood-opacity="0" result="BackgroundImageFix"/>
<feColorMatrix in="SourceAlpha" type="matrix" values="0 0 0 0 0 0 0 0 0 0 0 0 0 0 0 0 0 0 127 0" result="hardAlpha"/>
<feOffset dy="4"/>
<feGaussianBlur stdDeviation="2"/>
<feComposite in2="hardAlpha" operator="out"/>
<feColorMatrix type="matrix" values="0 0 0 0 0 0 0 0 0 0 0 0 0 0 0 0 0 0 0.25 0"/>
<feBlend mode="normal" in2="BackgroundImageFix" result="effect1_dropShadow_9:60"/>
<feBlend mode="normal" in="SourceGraphic" in2="effect1_dropShadow_9:60" result="shape"/>
</filter>
<clipPath id="clip0_9:60">
<rect width="595" height="842" fill="white"/>
</clipPath>
</defs>
</svg>
